# xmcd CD database file
#
# Track frame offsets:
#	150
#	17757
#	34982
#	52997
#	75637
#	97900
#	111487
#	132387
#	165925
#
# Disc length: 2561 seconds
#
# Revision: 0
# Processed by: cddbd v1.5.2PL0 Copyright (c) Steve Scherf et al.
# Submitted via: CDex 1.51
#
DISCID=6909ff09
DTITLE=Renato Sellani Trio - O SOLE MIO
DYEAR=2008
DGENRE=Jazz
TTITLE0=Donna 
TTITLE1=Tu Che M'hai Preso Il Cuor 
TTITLE2=Ma L'Amore No 
TTITLE3=Estate 
TTITLE4=Abbassa la Tua Radio
TTITLE5=O Sole Mio
TTITLE6=In Un Vecchio Palco Della Scala 
TTITLE7=Naples MedleyFuniculi Funicula?A Vucchella?Munastero 'E Santa Chiara?Io Te Vurria Vusa'?Reginella?Torna A Surriento 
TTITLE8=Autoritratto
EXTD=YEAR: 2008
EXTT0=
EXTT1=
EXTT2=
EXTT3=
EXTT4=
EXTT5=
EXTT6=
EXTT7=
EXTT8=
PLAYORDER=
